<?xml version="1.0" encoding="UTF-8"?>
<svg id="Layer_2" data-name="Layer 2" xmlns="http://www.w3.org/2000/svg" viewBox="0 0 816.58 172.67">
  <defs>
    <style>
      .cls-1 {
        fill: #fff;
      }

      .cls-2 {
        fill: none;
      }

      .cls-2, .cls-3 {
        stroke: #0b9447;
      }

      .cls-2, .cls-3, .cls-4, .cls-5 {
        stroke-miterlimit: 10;
        stroke-width: 2px;
      }

      .cls-6 {
        isolation: isolate;
      }

      .cls-7, .cls-3 {
        fill: #009444;
      }

      .cls-4 {
        fill: #10512a;
        stroke: #12512a;
      }

      .cls-8 {
        fill: #d9e693;
      }

      .cls-5 {
        fill: #ed1c24;
        stroke: #ed1c24;
      }

      .cls-9 {
        fill: #006838;
      }
    </style>
  </defs>
  <g id="Layer_2-2" data-name="Layer 2">
    <g id="Layer_1-2" data-name="Layer 1-2">
      <g>
        <path class="cls-4" d="m256.61,10.95h8.7c3.8,0,6.8,3.1,6.8,6.8v88.2c0,6.4.4,11.7,1.3,15.8.9,4.1,2.4,7.4,4.6,9.7,2.2,2.3,5.2,4,9.1,4.9,2.4.6,5.2,1,8.3,1.2,3.6.3,6.4,3.3,6.4,6.9v7.8c0,3.9-3.3,7.1-7.2,6.8-14.4-.9-25.1-4.8-32.3-11.6-8.3-7.9-12.5-20.3-12.5-37.3V17.55c-.1-3.5,2.9-6.6,6.8-6.6h0Z"/>
        <path class="cls-4" d="m318.21,54.35h8.4c3.8,0,7,2.4,7,5.4v92.9c0,3-3.1,5.4-7,5.4h-8.4c-3.8,0-7-2.4-7-5.4V59.75c.1-3,3.2-5.4,7-5.4Z"/>
      </g>
      <g>
        <path class="cls-4" d="m357.71,10.95h8.7c3.8,0,6.8,3.1,6.8,6.8v88.2c0,6.4.4,11.7,1.3,15.8.9,4.1,2.4,7.4,4.6,9.7,2.2,2.3,5.2,4,9.1,4.9,2.4.6,5.2,1,8.3,1.2,3.6.3,6.4,3.3,6.4,6.9v7.8c0,3.9-3.3,7.1-7.2,6.8-14.4-.9-25.1-4.8-32.3-11.6-8.3-7.9-12.5-20.3-12.5-37.3V17.55c-.1-3.5,3-6.6,6.8-6.6h0Z"/>
        <path class="cls-4" d="m419.41,54.35h8.4c3.8,0,7,2.4,7,5.4v92.9c0,3-3.1,5.4-7,5.4h-8.4c-3.8,0-7-2.4-7-5.4V59.75c0-3,3.1-5.4,7-5.4Z"/>
      </g>
      <g class="cls-6">
        <path class="cls-7" d="m467.05,59.56h5.02l12.3,26.7,12.15-26.7h5.05l-16.77,36.63h-.88l-16.87-36.63Z"/>
        <path class="cls-7" d="m541.58,84.04l3.97,2.09c-1.3,2.56-2.81,4.62-4.52,6.2-1.71,1.57-3.63,2.77-5.76,3.59s-4.55,1.23-7.25,1.23c-5.98,0-10.65-1.96-14.02-5.88s-5.05-8.34-5.05-13.28c0-4.65,1.43-8.79,4.28-12.42,3.62-4.62,8.46-6.94,14.53-6.94s11.23,2.37,14.96,7.1c2.65,3.34,4,7.52,4.04,12.53h-32.96c.09,4.25,1.45,7.74,4.08,10.46s5.88,4.08,9.74,4.08c1.87,0,3.68-.32,5.44-.97,1.76-.65,3.26-1.51,4.5-2.58s2.57-2.81,4.01-5.2Zm0-9.87c-.63-2.51-1.55-4.52-2.75-6.03-1.2-1.5-2.79-2.72-4.77-3.64-1.98-.92-4.06-1.38-6.24-1.38-3.6,0-6.69,1.16-9.27,3.47-1.89,1.68-3.32,4.21-4.28,7.58h27.31Z"/>
        <path class="cls-7" d="m561.66,45.96h4.71v13.6h7.48v4.07h-7.48v32.56h-4.71v-32.56h-6.43v-4.07h6.43v-13.6Z"/>
        <path class="cls-7" d="m613.76,84.04l3.97,2.09c-1.3,2.56-2.81,4.62-4.52,6.2s-3.63,2.77-5.76,3.59c-2.13.82-4.55,1.23-7.25,1.23-5.98,0-10.65-1.96-14.02-5.88-3.37-3.92-5.06-8.34-5.06-13.28,0-4.65,1.43-8.79,4.28-12.42,3.62-4.62,8.46-6.94,14.52-6.94s11.23,2.37,14.96,7.1c2.65,3.34,4,7.52,4.04,12.53h-32.96c.09,4.25,1.45,7.74,4.08,10.46,2.63,2.72,5.88,4.08,9.74,4.08,1.86,0,3.68-.32,5.44-.97,1.76-.65,3.26-1.51,4.5-2.58s2.57-2.81,4.01-5.2Zm0-9.87c-.63-2.51-1.55-4.52-2.75-6.03s-2.79-2.72-4.77-3.64c-1.98-.92-4.06-1.38-6.24-1.38-3.6,0-6.69,1.16-9.27,3.47-1.89,1.68-3.31,4.21-4.28,7.58h27.31Z"/>
        <path class="cls-7" d="m627.95,59.56h4.81v5.35c1.44-2.11,2.95-3.69,4.55-4.73,1.59-1.04,3.25-1.57,4.98-1.57,1.3,0,2.69.42,4.17,1.25l-2.46,3.97c-.99-.43-1.82-.64-2.49-.64-1.57,0-3.09.65-4.55,1.94-1.46,1.29-2.57,3.29-3.33,6.01-.58,2.09-.88,6.31-.88,12.66v12.39h-4.81v-36.63Z"/>
        <path class="cls-7" d="m654.11,44.48c1.07,0,1.99.38,2.75,1.14.76.76,1.14,1.68,1.14,2.76s-.38,1.96-1.14,2.73c-.76.76-1.68,1.14-2.75,1.14s-1.96-.38-2.72-1.14c-.76-.76-1.14-1.67-1.14-2.73s.38-2,1.14-2.76c.76-.76,1.67-1.14,2.72-1.14Zm-2.34,15.08h4.71v36.63h-4.71v-36.63Z"/>
        <path class="cls-7" d="m668.28,59.56h4.71v6.57c1.89-2.51,3.97-4.39,6.26-5.64,2.29-1.25,4.78-1.87,7.47-1.87s5.17.7,7.29,2.09c2.12,1.39,3.69,3.27,4.7,5.62,1.01,2.36,1.52,6.03,1.52,11.01v18.86h-4.71v-17.47c0-4.22-.17-7.04-.52-8.45-.55-2.42-1.59-4.25-3.14-5.47s-3.57-1.84-6.06-1.84c-2.85,0-5.41.94-7.66,2.83-2.26,1.88-3.74,4.22-4.46,7-.45,1.82-.67,5.14-.67,9.97v13.43h-4.71v-36.63Z"/>
        <path class="cls-7" d="m748.83,59.56v36.63h-4.65v-6.3c-1.97,2.4-4.19,4.21-6.65,5.42-2.46,1.21-5.15,1.82-8.06,1.82-5.19,0-9.61-1.88-13.28-5.64-3.67-3.76-5.51-8.33-5.51-13.72s1.85-9.79,5.56-13.54,8.16-5.62,13.37-5.62c3.01,0,5.73.64,8.16,1.92s4.57,3.2,6.41,5.76v-6.73h4.65Zm-18.84,3.6c-2.62,0-5.04.65-7.26,1.93s-3.99,3.1-5.3,5.43c-1.31,2.33-1.97,4.8-1.97,7.4s.66,5.05,1.98,7.4c1.32,2.35,3.1,4.19,5.33,5.5s4.62,1.97,7.18,1.97,5.02-.65,7.33-1.95,4.09-3.06,5.33-5.28c1.24-2.22,1.87-4.72,1.87-7.5,0-4.24-1.4-7.78-4.19-10.63-2.79-2.85-6.23-4.27-10.31-4.27Z"/>
        <path class="cls-7" d="m759.66,59.56h4.81v5.35c1.44-2.11,2.95-3.69,4.55-4.73,1.59-1.04,3.25-1.57,4.98-1.57,1.3,0,2.7.42,4.18,1.25l-2.46,3.97c-.99-.43-1.82-.64-2.49-.64-1.57,0-3.09.65-4.55,1.94-1.46,1.29-2.57,3.29-3.33,6.01-.58,2.09-.88,6.31-.88,12.66v12.39h-4.81v-36.63Z"/>
        <path class="cls-7" d="m780.24,59.56h4.98l12.59,28.21,12.23-28.21h5.02l-21.85,50.04h-4.98l7.05-16.18-15.04-33.86Z"/>
      </g>
      <g class="cls-6">
        <path class="cls-2" d="m467.05,59.56h5.02l12.3,26.7,12.15-26.7h5.05l-16.77,36.63h-.88l-16.87-36.63Z"/>
        <path class="cls-2" d="m541.58,84.04l3.97,2.09c-1.3,2.56-2.81,4.62-4.52,6.2-1.71,1.57-3.63,2.77-5.76,3.59s-4.55,1.23-7.25,1.23c-5.98,0-10.65-1.96-14.02-5.88s-5.05-8.34-5.05-13.28c0-4.65,1.43-8.79,4.28-12.42,3.62-4.62,8.46-6.94,14.53-6.94s11.23,2.37,14.96,7.1c2.65,3.34,4,7.52,4.04,12.53h-32.96c.09,4.25,1.45,7.74,4.08,10.46s5.88,4.08,9.74,4.08c1.87,0,3.68-.32,5.44-.97,1.76-.65,3.26-1.51,4.5-2.58s2.57-2.81,4.01-5.2Zm0-9.87c-.63-2.51-1.55-4.52-2.75-6.03-1.2-1.5-2.79-2.72-4.77-3.64-1.98-.92-4.06-1.38-6.24-1.38-3.6,0-6.69,1.16-9.27,3.47-1.89,1.68-3.32,4.21-4.28,7.58h27.31Z"/>
        <path class="cls-2" d="m561.66,45.96h4.71v13.6h7.48v4.07h-7.48v32.56h-4.71v-32.56h-6.43v-4.07h6.43v-13.6Z"/>
        <path class="cls-2" d="m613.76,84.04l3.97,2.09c-1.3,2.56-2.81,4.62-4.52,6.2s-3.63,2.77-5.76,3.59c-2.13.82-4.55,1.23-7.25,1.23-5.98,0-10.65-1.96-14.02-5.88-3.37-3.92-5.06-8.34-5.06-13.28,0-4.65,1.43-8.79,4.28-12.42,3.62-4.62,8.46-6.94,14.52-6.94s11.23,2.37,14.96,7.1c2.65,3.34,4,7.52,4.04,12.53h-32.96c.09,4.25,1.45,7.74,4.08,10.46,2.63,2.72,5.88,4.08,9.74,4.08,1.86,0,3.68-.32,5.44-.97,1.76-.65,3.26-1.51,4.5-2.58s2.57-2.81,4.01-5.2Zm0-9.87c-.63-2.51-1.55-4.52-2.75-6.03s-2.79-2.72-4.77-3.64c-1.98-.92-4.06-1.38-6.24-1.38-3.6,0-6.69,1.16-9.27,3.47-1.89,1.68-3.31,4.21-4.28,7.58h27.31Z"/>
        <path class="cls-2" d="m627.95,59.56h4.81v5.35c1.44-2.11,2.95-3.69,4.55-4.73,1.59-1.04,3.25-1.57,4.98-1.57,1.3,0,2.69.42,4.17,1.25l-2.46,3.97c-.99-.43-1.82-.64-2.49-.64-1.57,0-3.09.65-4.55,1.94-1.46,1.29-2.57,3.29-3.33,6.01-.58,2.09-.88,6.31-.88,12.66v12.39h-4.81v-36.63Z"/>
        <path class="cls-2" d="m654.11,44.48c1.07,0,1.99.38,2.75,1.14.76.76,1.14,1.68,1.14,2.76s-.38,1.96-1.14,2.73c-.76.76-1.68,1.14-2.75,1.14s-1.96-.38-2.72-1.14c-.76-.76-1.14-1.67-1.14-2.73s.38-2,1.14-2.76c.76-.76,1.67-1.14,2.72-1.14Zm-2.34,15.08h4.71v36.63h-4.71v-36.63Z"/>
        <path class="cls-2" d="m668.28,59.56h4.71v6.57c1.89-2.51,3.97-4.39,6.26-5.64,2.29-1.25,4.78-1.87,7.47-1.87s5.17.7,7.29,2.09c2.12,1.39,3.69,3.27,4.7,5.62,1.01,2.36,1.52,6.03,1.52,11.01v18.86h-4.71v-17.47c0-4.22-.17-7.04-.52-8.45-.55-2.42-1.59-4.25-3.14-5.47s-3.57-1.84-6.06-1.84c-2.85,0-5.41.94-7.66,2.83-2.26,1.88-3.74,4.22-4.46,7-.45,1.82-.67,5.14-.67,9.97v13.43h-4.71v-36.63Z"/>
        <path class="cls-2" d="m748.83,59.56v36.63h-4.65v-6.3c-1.97,2.4-4.19,4.21-6.65,5.42-2.46,1.21-5.15,1.82-8.06,1.82-5.19,0-9.61-1.88-13.28-5.64-3.67-3.76-5.51-8.33-5.51-13.72s1.85-9.79,5.56-13.54,8.16-5.62,13.37-5.62c3.01,0,5.73.64,8.16,1.92s4.57,3.2,6.41,5.76v-6.73h4.65Zm-18.84,3.6c-2.62,0-5.04.65-7.26,1.93s-3.99,3.1-5.3,5.43c-1.31,2.33-1.97,4.8-1.97,7.4s.66,5.05,1.98,7.4c1.32,2.35,3.1,4.19,5.33,5.5s4.62,1.97,7.18,1.97,5.02-.65,7.33-1.95,4.09-3.06,5.33-5.28c1.24-2.22,1.87-4.72,1.87-7.5,0-4.24-1.4-7.78-4.19-10.63-2.79-2.85-6.23-4.27-10.31-4.27Z"/>
        <path class="cls-2" d="m759.66,59.56h4.81v5.35c1.44-2.11,2.95-3.69,4.55-4.73,1.59-1.04,3.25-1.57,4.98-1.57,1.3,0,2.7.42,4.18,1.25l-2.46,3.97c-.99-.43-1.82-.64-2.49-.64-1.57,0-3.09.65-4.55,1.94-1.46,1.29-2.57,3.29-3.33,6.01-.58,2.09-.88,6.31-.88,12.66v12.39h-4.81v-36.63Z"/>
        <path class="cls-2" d="m780.24,59.56h4.98l12.59,28.21,12.23-28.21h5.02l-21.85,50.04h-4.98l7.05-16.18-15.04-33.86Z"/>
      </g>
      <g class="cls-6">
        <path class="cls-7" d="m470.52,107.49h4.71v20.71c1.91-2.51,4.01-4.39,6.3-5.64,2.29-1.25,4.77-1.87,7.44-1.87s5.17.7,7.29,2.09c2.12,1.39,3.69,3.26,4.7,5.61,1.01,2.35,1.52,6.02,1.52,11.03v18.86h-4.71v-17.47c0-4.22-.17-7.04-.5-8.45-.58-2.42-1.64-4.25-3.18-5.47-1.54-1.22-3.55-1.84-6.04-1.84-2.85,0-5.4.94-7.66,2.83-2.26,1.88-3.74,4.22-4.46,7-.45,1.8-.67,5.12-.67,9.97v13.43h-4.71v-50.78Z"/>
        <path class="cls-7" d="m530.88,120.69c5.64,0,10.32,2.04,14.03,6.13,3.37,3.73,5.06,8.14,5.06,13.23s-1.78,9.59-5.35,13.42c-3.56,3.83-8.15,5.74-13.75,5.74s-10.21-1.91-13.78-5.74c-3.56-3.83-5.35-8.3-5.35-13.42s1.69-9.47,5.06-13.2c3.71-4.11,8.4-6.16,14.07-6.16Zm-.02,4.61c-3.92,0-7.29,1.45-10.1,4.34-2.82,2.9-4.22,6.4-4.22,10.5,0,2.65.64,5.12,1.93,7.41,1.28,2.29,3.02,4.06,5.2,5.3,2.18,1.25,4.58,1.87,7.2,1.87s5.01-.62,7.2-1.87c2.18-1.25,3.92-3.01,5.2-5.3,1.28-2.29,1.93-4.76,1.93-7.41,0-4.11-1.41-7.61-4.24-10.5-2.83-2.9-6.19-4.34-10.09-4.34Z"/>
        <path class="cls-7" d="m578.08,125.64l-3.03,3.13c-2.52-2.45-4.99-3.67-7.39-3.67-1.53,0-2.84.51-3.93,1.52-1.09,1.01-1.64,2.19-1.64,3.54,0,1.19.45,2.32,1.35,3.4.9,1.1,2.79,2.39,5.67,3.87,3.51,1.82,5.89,3.57,7.15,5.25,1.24,1.71,1.86,3.63,1.86,5.76,0,3.01-1.06,5.56-3.17,7.64-2.11,2.09-4.75,3.13-7.92,3.13-2.11,0-4.13-.46-6.05-1.38-1.92-.92-3.51-2.19-4.77-3.8l2.96-3.37c2.41,2.72,4.96,4.07,7.66,4.07,1.89,0,3.5-.61,4.83-1.82s1.99-2.64,1.99-4.28c0-1.35-.44-2.55-1.32-3.6-.88-1.03-2.86-2.33-5.94-3.91-3.31-1.71-5.56-3.39-6.75-5.05-1.19-1.66-1.79-3.56-1.79-5.69,0-2.78.95-5.1,2.85-6.94,1.9-1.84,4.3-2.76,7.2-2.76,3.37,0,6.77,1.65,10.18,4.95Z"/>
        <path class="cls-7" d="m587.46,121.63h4.71v6.73c1.86-2.56,4-4.48,6.42-5.76s5.12-1.92,8.11-1.92c5.2,0,9.65,1.87,13.35,5.62s5.55,8.26,5.55,13.54-1.83,9.96-5.5,13.72c-3.67,3.76-8.09,5.64-13.27,5.64-2.92,0-5.6-.61-8.04-1.82-2.45-1.21-4.65-3.02-6.63-5.42v19.7h-4.71v-50.04Zm18.86,3.6c-4.08,0-7.51,1.42-10.3,4.27-2.79,2.85-4.18,6.39-4.18,10.63,0,2.78.62,5.28,1.86,7.5,1.24,2.22,3.02,3.98,5.34,5.28s4.76,1.95,7.34,1.95,4.91-.66,7.14-1.97,4-3.14,5.32-5.5c1.32-2.35,1.98-4.82,1.98-7.4s-.66-5.07-1.97-7.4-3.07-4.14-5.29-5.43c-2.22-1.29-4.64-1.93-7.26-1.93Z"/>
        <path class="cls-7" d="m637.03,106.55c1.07,0,1.99.38,2.75,1.14.76.76,1.14,1.68,1.14,2.76s-.38,1.96-1.14,2.73c-.76.76-1.68,1.14-2.75,1.14s-1.96-.38-2.72-1.14c-.76-.76-1.14-1.67-1.14-2.73s.38-2,1.14-2.76c.76-.76,1.67-1.14,2.72-1.14Zm-2.34,15.08h4.71v36.63h-4.71v-36.63Z"/>
        <path class="cls-7" d="m654.27,108.03h4.71v13.6h7.47v4.07h-7.47v32.56h-4.71v-32.56h-6.43v-4.07h6.43v-13.6Z"/>
        <path class="cls-7" d="m711,121.63v36.63h-4.65v-6.3c-1.98,2.4-4.19,4.21-6.65,5.42-2.46,1.21-5.15,1.82-8.06,1.82-5.19,0-9.61-1.88-13.28-5.64-3.67-3.76-5.5-8.33-5.5-13.72s1.85-9.79,5.55-13.54c3.71-3.75,8.16-5.62,13.37-5.62,3.01,0,5.73.64,8.17,1.92s4.57,3.2,6.41,5.76v-6.73h4.65Zm-18.84,3.6c-2.62,0-5.04.65-7.27,1.93-2.22,1.29-3.99,3.1-5.3,5.43s-1.97,4.8-1.97,7.4.66,5.05,1.98,7.4c1.32,2.35,3.1,4.19,5.33,5.5s4.62,1.97,7.18,1.97,5.02-.65,7.33-1.95c2.31-1.3,4.09-3.06,5.33-5.28,1.24-2.22,1.87-4.72,1.87-7.5,0-4.24-1.4-7.78-4.19-10.63-2.79-2.85-6.23-4.27-10.31-4.27Z"/>
        <path class="cls-7" d="m721.86,107.49h4.71v50.78h-4.71v-50.78Z"/>
      </g>
      <g class="cls-6">
        <path class="cls-2" d="m470.52,107.49h4.71v20.71c1.91-2.51,4.01-4.39,6.3-5.64,2.29-1.25,4.77-1.87,7.44-1.87s5.17.7,7.29,2.09c2.12,1.39,3.69,3.26,4.7,5.61,1.01,2.35,1.52,6.02,1.52,11.03v18.86h-4.71v-17.47c0-4.22-.17-7.04-.5-8.45-.58-2.42-1.64-4.25-3.18-5.47-1.54-1.22-3.55-1.84-6.04-1.84-2.85,0-5.4.94-7.66,2.83-2.26,1.88-3.74,4.22-4.46,7-.45,1.8-.67,5.12-.67,9.97v13.43h-4.71v-50.78Z"/>
        <path class="cls-2" d="m530.88,120.69c5.64,0,10.32,2.04,14.03,6.13,3.37,3.73,5.06,8.14,5.06,13.23s-1.78,9.59-5.35,13.42c-3.56,3.83-8.15,5.74-13.75,5.74s-10.21-1.91-13.78-5.74c-3.56-3.83-5.35-8.3-5.35-13.42s1.69-9.47,5.06-13.2c3.71-4.11,8.4-6.16,14.07-6.16Zm-.02,4.61c-3.92,0-7.29,1.45-10.1,4.34-2.82,2.9-4.22,6.4-4.22,10.5,0,2.65.64,5.12,1.93,7.41,1.28,2.29,3.02,4.06,5.2,5.3,2.18,1.25,4.58,1.87,7.2,1.87s5.01-.62,7.2-1.87c2.18-1.25,3.92-3.01,5.2-5.3,1.28-2.29,1.93-4.76,1.93-7.41,0-4.11-1.41-7.61-4.24-10.5-2.83-2.9-6.19-4.34-10.09-4.34Z"/>
        <path class="cls-2" d="m578.08,125.64l-3.03,3.13c-2.52-2.45-4.99-3.67-7.39-3.67-1.53,0-2.84.51-3.93,1.52-1.09,1.01-1.64,2.19-1.64,3.54,0,1.19.45,2.32,1.35,3.4.9,1.1,2.79,2.39,5.67,3.87,3.51,1.82,5.89,3.57,7.15,5.25,1.24,1.71,1.86,3.63,1.86,5.76,0,3.01-1.06,5.56-3.17,7.64-2.11,2.09-4.75,3.13-7.92,3.13-2.11,0-4.13-.46-6.05-1.38-1.92-.92-3.51-2.19-4.77-3.8l2.96-3.37c2.41,2.72,4.96,4.07,7.66,4.07,1.89,0,3.5-.61,4.83-1.82s1.99-2.64,1.99-4.28c0-1.35-.44-2.55-1.32-3.6-.88-1.03-2.86-2.33-5.94-3.91-3.31-1.71-5.56-3.39-6.75-5.05-1.19-1.66-1.79-3.56-1.79-5.69,0-2.78.95-5.1,2.85-6.94,1.9-1.84,4.3-2.76,7.2-2.76,3.37,0,6.77,1.65,10.18,4.95Z"/>
        <path class="cls-2" d="m587.46,121.63h4.71v6.73c1.86-2.56,4-4.48,6.42-5.76s5.12-1.92,8.11-1.92c5.2,0,9.65,1.87,13.35,5.62s5.55,8.26,5.55,13.54-1.83,9.96-5.5,13.72c-3.67,3.76-8.09,5.64-13.27,5.64-2.92,0-5.6-.61-8.04-1.82-2.45-1.21-4.65-3.02-6.63-5.42v19.7h-4.71v-50.04Zm18.86,3.6c-4.08,0-7.51,1.42-10.3,4.27-2.79,2.85-4.18,6.39-4.18,10.63,0,2.78.62,5.28,1.86,7.5,1.24,2.22,3.02,3.98,5.34,5.28s4.76,1.95,7.34,1.95,4.91-.66,7.14-1.97,4-3.14,5.32-5.5c1.32-2.35,1.98-4.82,1.98-7.4s-.66-5.07-1.97-7.4-3.07-4.14-5.29-5.43c-2.22-1.29-4.64-1.93-7.26-1.93Z"/>
        <path class="cls-2" d="m637.03,106.55c1.07,0,1.99.38,2.75,1.14.76.76,1.14,1.68,1.14,2.76s-.38,1.96-1.14,2.73c-.76.76-1.68,1.14-2.75,1.14s-1.96-.38-2.72-1.14c-.76-.76-1.14-1.67-1.14-2.73s.38-2,1.14-2.76c.76-.76,1.67-1.14,2.72-1.14Zm-2.34,15.08h4.71v36.63h-4.71v-36.63Z"/>
        <path class="cls-2" d="m654.27,108.03h4.71v13.6h7.47v4.07h-7.47v32.56h-4.71v-32.56h-6.43v-4.07h6.43v-13.6Z"/>
        <path class="cls-2" d="m711,121.63v36.63h-4.65v-6.3c-1.98,2.4-4.19,4.21-6.65,5.42-2.46,1.21-5.15,1.82-8.06,1.82-5.19,0-9.61-1.88-13.28-5.64-3.67-3.76-5.5-8.33-5.5-13.72s1.85-9.79,5.55-13.54c3.71-3.75,8.16-5.62,13.37-5.62,3.01,0,5.73.64,8.17,1.92s4.57,3.2,6.41,5.76v-6.73h4.65Zm-18.84,3.6c-2.62,0-5.04.65-7.27,1.93-2.22,1.29-3.99,3.1-5.3,5.43s-1.97,4.8-1.97,7.4.66,5.05,1.98,7.4c1.32,2.35,3.1,4.19,5.33,5.5s4.62,1.97,7.18,1.97,5.02-.65,7.33-1.95c2.31-1.3,4.09-3.06,5.33-5.28,1.24-2.22,1.87-4.72,1.87-7.5,0-4.24-1.4-7.78-4.19-10.63-2.79-2.85-6.23-4.27-10.31-4.27Z"/>
        <path class="cls-2" d="m721.86,107.49h4.71v50.78h-4.71v-50.78Z"/>
      </g>
      <g>
        <path class="cls-8" d="m98.21,27.15c-9.8-9.2-21.2-14.7-34.4-15.2-24.1-.9-43,12.7-49,35.7-5.5,21.4.4,40.3,14,57.1,2.9,3.6,6.2,7,9.5,10.4,5.1,5.1,9.5,10.3,12.5,17.3,6.8,16.2,27.4,22.4,43.7,14,2.8-1.5,5-1.6,7.8-.1,14.2,7.7,32.9,3.7,39.9-10.7,5.6-11.6,14.5-19.7,22.6-28.8,10.6-11.9,17.3-25.5,18.6-41.5.1-1.2.6-2.8,1.5-3.5,4-3,8.2-5.8,12.7-8.8,0,5.2.4,10.8-.1,16.3-2.2,23.9-14.8,42.4-31.1,59-14.1,14.4-29.3,27.2-46.5,37.7-12.7,7.8-25.1,8.9-38.5,1.7-20-10.8-37.3-24.8-52.6-41.4-9.2-9.9-17.6-20.5-22.6-33.3-7.7-19.6-8.8-39.4-.1-58.7C15.01,14.75,31.21,4.15,52.21.75c15.4-2.5,29.5,1.3,42.3,10.2,1.9,1.3,3.4,1.7,5.6.2,17.7-12.1,36.5-14.4,56.5-6.2.5.2,1.1.3,1.7.4.4.1.8.2,1.2.4-3.3,2.6-6.4,5.1-9.6,7.5-.8.6-2.1.9-3,.7-22.2-3.8-30.6-1.6-48.7,13.2h0Z"/>
        <path class="cls-9" d="m138.71,111.35c-6.5-15.6-17.5-26.9-33.1-33.6-5-2.2-10.2-2-15.3.1-11,4.4-19.5,11.9-26.7,21-4.9,6.2-8.7,12.8-8.7,21.1,0,9.9,6.6,18.7,16.2,21.4,6.6,1.9,13.2,1.5,19.6-.9,5.1-1.9,10.1-2.3,15.3-.3,2,.8,4.1,1,6.2,1.5,9.3,1.9,17.5-.2,23.8-7.6,5.7-6.8,6-14.7,2.7-22.7h0Z"/>
        <ellipse class="cls-7" cx="146.87" cy="76.64" rx="17.9" ry="15.5" transform="translate(25.88 189.8) rotate(-70.64)"/>
        <ellipse class="cls-7" cx="116.9" cy="54.91" rx="17.9" ry="15.5" transform="translate(26.34 147) rotate(-70.64)"/>
        <ellipse class="cls-7" cx="48.01" cy="76.26" rx="15.5" ry="17.9" transform="translate(-22.57 20.23) rotate(-19.36)"/>
        <ellipse class="cls-7" cx="78.03" cy="54.56" rx="15.5" ry="17.9" transform="translate(-13.67 28.95) rotate(-19.36)"/>
        <g>
          <circle class="cls-5" cx="175.51" cy="32.15" r="23.2"/>
          <circle class="cls-1" cx="186.11" cy="26.35" r="6.3"/>
        </g>
      </g>
      <circle class="cls-3" cx="322.41" cy="31.05" r="12.3"/>
      <circle class="cls-3" cx="423.61" cy="31.05" r="12.3"/>
    </g>
  </g>
</svg>