<?xml version="1.0" encoding="utf-8"?>
<!-- Generator: Adobe Illustrator 27.3.1, SVG Export Plug-In . SVG Version: 6.00 Build 0)  -->
<svg version="1.1" id="Layer_2_00000067919961759933755000000003170255880478700675_"
	 xmlns="http://www.w3.org/2000/svg" xmlns:xlink="http://www.w3.org/1999/xlink" x="0px" y="0px" viewBox="0 0 1082.3 485.9"
	 style="enable-background:new 0 0 1082.3 485.9;" xml:space="preserve">
<style type="text/css">
	.st0{fill:#10512A;stroke:#12512A;stroke-width:2;stroke-miterlimit:10;}
	.st1{fill:#009444;}
	.st2{font-family:'CenturyGothic';}
	.st3{font-size:68.9576px;}
	.st4{letter-spacing:2;}
	.st5{fill:none;stroke:#0B9447;stroke-width:2;stroke-miterlimit:10;}
	.st6{letter-spacing:1;}
	.st7{fill:#D9E693;}
	.st8{fill:#006838;}
	.st9{fill:#ED1C24;stroke:#ED1C24;stroke-width:2;stroke-miterlimit:10;}
	.st10{fill:#FFFFFF;}
	.st11{fill:#009444;stroke:#0B9447;stroke-width:2;stroke-miterlimit:10;}
</style>
<g id="Layer_1-2">
	<g>
		<path class="st0" d="M389,163.7h8.7c3.8,0,6.8,3.1,6.8,6.8v88.2c0,6.4,0.4,11.7,1.3,15.8c0.9,4.1,2.4,7.4,4.6,9.7
			c2.2,2.3,5.2,4,9.1,4.9c2.4,0.6,5.2,1,8.3,1.2c3.6,0.3,6.4,3.3,6.4,6.9v7.8c0,3.9-3.3,7.1-7.2,6.8c-14.4-0.9-25.1-4.8-32.3-11.6
			c-8.3-7.9-12.5-20.3-12.5-37.3v-92.6C382.1,166.8,385.1,163.7,389,163.7L389,163.7z"/>
		<path class="st0" d="M450.6,207.1h8.4c3.8,0,7,2.4,7,5.4v92.9c0,3-3.1,5.4-7,5.4h-8.4c-3.8,0-7-2.4-7-5.4v-92.9
			C443.7,209.5,446.8,207.1,450.6,207.1z"/>
	</g>
	<g>
		<path class="st0" d="M490.1,163.7h8.7c3.8,0,6.8,3.1,6.8,6.8v88.2c0,6.4,0.4,11.7,1.3,15.8c0.9,4.1,2.4,7.4,4.6,9.7
			c2.2,2.3,5.2,4,9.1,4.9c2.4,0.6,5.2,1,8.3,1.2c3.6,0.3,6.4,3.3,6.4,6.9v7.8c0,3.9-3.3,7.1-7.2,6.8c-14.4-0.9-25.1-4.8-32.3-11.6
			c-8.3-7.9-12.5-20.3-12.5-37.3v-92.6C483.2,166.8,486.3,163.7,490.1,163.7L490.1,163.7z"/>
		<path class="st0" d="M551.8,207.1h8.4c3.8,0,7,2.4,7,5.4v92.9c0,3-3.1,5.4-7,5.4h-8.4c-3.8,0-7-2.4-7-5.4v-92.9
			C544.8,209.5,547.9,207.1,551.8,207.1z"/>
	</g>
	<text transform="matrix(1 0 0 1 597.6592 248.9407)" class="st1 st2 st3 st4">veterinary</text>
	<text transform="matrix(1 0 0 1 597.6592 248.9407)" class="st5 st2 st3 st4">veterinary</text>
	<text transform="matrix(1 0 0 1 597.6592 311.011)" class="st1 st2 st3 st6">hospital</text>
	<text transform="matrix(1 0 0 1 597.6592 311.011)" class="st5 st2 st3 st6">hospital</text>
	<g>
		<path class="st7" d="M230.6,179.9c-9.8-9.2-21.2-14.7-34.4-15.2c-24.1-0.9-43,12.7-49,35.7c-5.5,21.4,0.4,40.3,14,57.1
			c2.9,3.6,6.2,7,9.5,10.4c5.1,5.1,9.5,10.3,12.5,17.3c6.8,16.2,27.4,22.4,43.7,14c2.8-1.5,5-1.6,7.8-0.1
			c14.2,7.7,32.9,3.7,39.9-10.7c5.6-11.6,14.5-19.7,22.6-28.8c10.6-11.9,17.3-25.5,18.6-41.5c0.1-1.2,0.6-2.8,1.5-3.5
			c4-3,8.2-5.8,12.7-8.8c0,5.2,0.4,10.8-0.1,16.3c-2.2,23.9-14.8,42.4-31.1,59c-14.1,14.4-29.3,27.2-46.5,37.7
			c-12.7,7.8-25.1,8.9-38.5,1.7c-20-10.8-37.3-24.8-52.6-41.4c-9.2-9.9-17.6-20.5-22.6-33.3c-7.7-19.6-8.8-39.4-0.1-58.7
			c8.9-19.6,25.1-30.2,46.1-33.6c15.4-2.5,29.5,1.3,42.3,10.2c1.9,1.3,3.4,1.7,5.6,0.2c17.7-12.1,36.5-14.4,56.5-6.2
			c0.5,0.2,1.1,0.3,1.7,0.4c0.4,0.1,0.8,0.2,1.2,0.4c-3.3,2.6-6.4,5.1-9.6,7.5c-0.8,0.6-2.1,0.9-3,0.7
			C257.1,162.9,248.7,165.1,230.6,179.9L230.6,179.9z"/>
		<path class="st8" d="M271.1,264.1c-6.5-15.6-17.5-26.9-33.1-33.6c-5-2.2-10.2-2-15.3,0.1c-11,4.4-19.5,11.9-26.7,21
			c-4.9,6.2-8.7,12.8-8.7,21.1c0,9.9,6.6,18.7,16.2,21.4c6.6,1.9,13.2,1.5,19.6-0.9c5.1-1.9,10.1-2.3,15.3-0.3c2,0.8,4.1,1,6.2,1.5
			c9.3,1.9,17.5-0.2,23.8-7.6C274.1,280,274.4,272.1,271.1,264.1L271.1,264.1z"/>
		
			<ellipse transform="matrix(0.3315 -0.9435 0.9435 0.3315 -29.7658 416.8592)" class="st1" cx="279.3" cy="229.4" rx="17.9" ry="15.5"/>
		
			<ellipse transform="matrix(0.3315 -0.9435 0.9435 0.3315 -29.3172 374.0202)" class="st1" cx="249.3" cy="207.7" rx="17.9" ry="15.5"/>
		
			<ellipse transform="matrix(0.9435 -0.3315 0.3315 0.9435 -65.7173 72.7494)" class="st1" cx="180.4" cy="229" rx="15.5" ry="17.9"/>
		
			<ellipse transform="matrix(0.9435 -0.3315 0.3315 0.9435 -56.8113 81.4655)" class="st1" cx="210.4" cy="207.3" rx="15.5" ry="17.9"/>
		<g>
			<circle class="st9" cx="307.9" cy="184.9" r="23.2"/>
			<circle class="st10" cx="318.5" cy="179.1" r="6.3"/>
		</g>
	</g>
	<circle class="st11" cx="454.8" cy="183.8" r="12.3"/>
	<circle class="st11" cx="556" cy="183.8" r="12.3"/>
</g>
</svg>
